<svg xmlns="http://www.w3.org/2000/svg" width="65" height="65"><defs><linearGradient id="A" y1="26.924%" x2="28.129%" x1="54.638%" y2="79.519%"><stop stop-color="#fff" stop-opacity="0" offset="0"/><stop stop-color="#fff" stop-opacity=".275" offset="1"/></linearGradient></defs><path d="M32.253.21c-2.849 6.984-4.579 11.559-7.75 18.336 1.944 2.061 4.334 4.453 8.211 7.164-4.168-1.715-7.009-3.432-9.133-5.219C19.522 28.961 13.158 41.022.253 64.21c10.14-5.854 18.002-9.466 25.328-10.844-.314-1.351-.481-2.819-.469-4.344l.008-.32c.161-6.498 3.542-11.495 7.547-11.156s7.122 5.884 6.961 12.383c-.031 1.224-.173 2.4-.414 3.492 7.247 1.418 15.034 5.013 25.039 10.789l-5.422-10.024c-2.649-2.053-5.411-4.724-11.047-7.617 3.874 1.007 6.65 2.171 8.812 3.469C39.498 18.203 38.116 13.97 32.253.21h0z" fill="#1793d1"/><path fill-opacity=".166" fill="#fff" d="M50.266 38.249C36.394 19.422 33.179 4.247 32.364.624c7.4 17.067 7.349 17.277 17.902 37.625z"/><path d="M32.378.46l-1.032 2.563-1.062 2.594-1.031 2.438-1 2.406-1.094 2.437-1.156 2.532-1.282 2.75-.187.406c1.939 2.054 4.33 4.427 8.187 7.125-4.167-1.715-7-3.432-9.125-5.219l-.312.656-1.344 2.688c-.113.224-.196.427-.312.656l-1.594 3.156c-.113.22-.228.402-.344.625l-2.562 4.907-1.907 3.656-.75 1.406c8.125-4.573 16.891-11.216 32.813-5.531l-2.25-4.25-1.906-3.75-1.657-3.344-1.437-3-1.281-2.75-1.125-2.562-1.032-2.469-1-2.406c-.142-.355-.263-.734-.406-1.094L32.378.46h0z" fill="url(#A)"/></svg>