<svg xmlns="http://www.w3.org/2000/svg" width="256" height="293" preserveAspectRatio="xMidYMid"><path d="M226.011 0H29.989C13.458 0 0 13.458 0 30.135v197.778c0 16.677 13.458 30.135 29.989 30.135h165.888l-7.753-27.063 18.725 17.408 17.701 16.384L256 292.571V30.135C256 13.458 242.542 0 226.011 0zm-56.466 191.049L159.89 179.2c19.163-5.413 26.478-17.408 26.478-17.408-5.998 3.95-11.703 6.729-16.823 8.631-7.314 3.072-14.336 5.12-21.211 6.29-14.043 2.633-26.917 1.902-37.888-.146-8.338-1.609-15.506-3.95-21.504-6.29-3.365-1.317-7.022-2.926-10.679-4.974-.439-.293-.878-.439-1.317-.731-.293-.146-.439-.293-.585-.439-2.633-1.463-4.096-2.487-4.096-2.487s7.022 11.703 25.6 17.262l-9.801 12.142c-32.329-1.024-44.617-22.235-44.617-22.235 0-47.104 21.065-85.285 21.065-85.285 21.065-15.799 41.106-15.36 41.106-15.36l1.463 1.755C80.75 77.531 68.608 89.088 68.608 89.088s3.218-1.755 8.631-4.242c15.653-6.875 28.087-8.777 33.207-9.216.878-.146 1.609-.293 2.487-.293 8.923-1.17 19.017-1.463 29.55-.293 13.897 1.609 28.818 5.705 44.032 14.043 0 0-11.557-10.971-36.425-18.578l2.048-2.341s20.041-.439 41.106 15.36c0 0 21.065 38.181 21.065 85.285 0 0-12.434 21.211-44.763 22.235zm-68.023-68.315c-8.338 0-14.921 7.314-14.921 16.238s6.729 16.238 14.921 16.238c8.338 0 14.921-7.314 14.921-16.238.146-8.923-6.583-16.238-14.921-16.238m53.394 0c-8.338 0-14.921 7.314-14.921 16.238s6.729 16.238 14.921 16.238c8.338 0 14.921-7.314 14.921-16.238s-6.583-16.238-14.921-16.238" fill="#7289da"/></svg>