<svg xmlns="http://www.w3.org/2000/svg" xmlns:xlink="http://www.w3.org/1999/xlink" width="92" height="92"><defs><path id="A" d="M0 .316h91.683v91.367H0z"/><path id="B" d="M40.296 18.771c-.369 1.55-1.769 2.703-3.235 2.703s-2.59-1.256-2.221-2.806 1.582-2.806 3.322-2.806c1.466 0 2.503 1.359 2.134 2.909"/></defs><g fill="none" fill-rule="evenodd"><g transform="translate(0 .002)"><mask id="C" fill="#fff"><use xlink:href="#A"/></mask><path d="M83.075 91.683H8.608C3.874 91.683 0 87.823 0 83.104V8.894C0 4.176 3.874.316 8.608.316h74.467c4.735 0 8.608 3.861 8.608 8.579v74.21c0 4.718-3.874 8.579-8.608 8.579" fill="#e82529" mask="url(#C)"/></g><g fill="#fefefe"><path d="M19.781 17.522h4.344a.54.54 0 0 1 .538.618l-2.017 13.946a.89.89 0 0 0 .884 1.017h7.62c.216 0 .382.192.351.405l-.591 4.005c-.031.208-.21.363-.421.363h-8.616c-2.563 0-5.021-2.095-4.659-4.623l2.03-15.261a.54.54 0 0 1 .538-.47m14.483 5.564l-1.988 14.223c-.032.226.144.427.373.427h4.203a.6.6 0 0 0 .594-.515l1.969-13.991a.54.54 0 0 0-.536-.608h-4.079a.54.54 0 0 0-.535.464m8.669 13.559c-1.297-.047-1.904.358-2.669.813l1.765-11.889c.14-.654.267-1.746.844-2.297.677-.647 1.724-1.016 6.937-1.033 5.321-.017 6.352 3.799 6.069 6.279l-1.256 8.831c-.034.223-.225.387-.45.387h-4.11c-.301 0-.533-.265-.491-.562l.954-6.505c.235-1.403.422-2.947.047-3.556s-1.503-1.075-3.662-.701l-1.597 11.254s-1.028-.972-2.382-1.021m17.405-19.931h4.559a.28.28 0 0 1 .277.317l-2.837 20.481c-.021.152-.152.265-.306.265h-4.501c-.187 0-.331-.165-.305-.349l2.836-20.473a.28.28 0 0 1 .277-.241m3.528 12.34l5.153-6.013a.86.86 0 0 1 .65-.299h4.523c.327 0 .499.385.28.627l-5.269 5.827 4.816 10.322a.57.57 0 0 1-.52.812h-4.088a.55.55 0 0 1-.497-.317l-5.049-10.959z"/><use xlink:href="#B"/><use xlink:href="#B" x="4.635" y="22.59"/><path d="M66.985 59.881a3.39 3.39 0 0 1-3.267 2.67c-1.542-.001-2.786-1.243-2.475-2.774s1.525-2.772 3.354-2.771c1.541.001 2.7 1.344 2.389 2.876m-38.809-7.629h-2.76c-.103 0-.173-.103-.135-.198l2.402-6.076c.046-.116.217-.091.228.033l.54 5.942c.015.161-.112.3-.275.3m6.687 7.631l-3.08-18.373a1.67 1.67 0 0 0-1.65-1.392h-3.091c-.943 0-1.798.549-2.189 1.403l-8.298 18.384a.4.4 0 0 0 .37.566l4.311-.025a.74.74 0 0 0 .676-.448l1.433-3.36c.039-.092.129-.151.229-.151h5.218a.25.25 0 0 1 .248.224l.311 3.179c.036.37.348.652.721.652h4.229a.57.57 0 0 0 .561-.66"/><path d="M32.807 63.212l.996 3.066c.179.504.314.616.664.543 1.258-.264 4.297-1.159 5.784-3.164 1.938-2.613 2.204-7.234 2.546-9.582l1.108-8.314c.038-.291-.19-.549-.485-.549h-3.865a.68.68 0 0 0-.676.588l-1.63 11.644c-.228 1.326-.273 3.235-2.241 4.375-.982.568-1.486.677-1.874.858-.198.092-.421.191-.325.534m21.268-7.076s-2.015.683-2.983-.04-1.048-2.209-.484-4.338 1.975-2.491 2.58-2.531 1.742.245 1.742.245l-.855 6.665zm5.581-10.372c-1.303-.325-3.494-1.039-7.017-.781-3.25.237-6.92 1.735-7.607 8.129s2.246 7.626 6.461 7.809a15.37 15.37 0 0 0 6.59-1.175 1.16 1.16 0 0 0 .69-.908l1.558-12.309c.061-.489-.184-.641-.675-.764z"/><path d="M62.664 54.967l1.134-11.787c.041-.422.396-.595.822-.595h3.913c.364 0 .519.276.418.727l-2.388 11.803c-.048.228-.25.392-.485.392h-2.922c-.292 0-.52-.251-.492-.54M16.877 76.702a3.56 3.56 0 0 0 2.541.347c3.431-.81 11.025-2.991 27.088-5.305 20.181-2.907 35.081-2.895 35.081-2.895l.039-.024s-13.207-1.808-34.881.301-33.773 5.425-33.773 5.425l3.904 2.15z"/></g></g></svg>