<svg xmlns="http://www.w3.org/2000/svg" xmlns:xlink="http://www.w3.org/1999/xlink" width="64" height="64" image-rendering="optimizeSpeed"><style><![CDATA[.B{dominant-baseline:auto}.C{filter:url(#C)}]]></style><defs><linearGradient id="A" gradientUnits="userSpaceOnUse"><stop offset="0"/><stop stop-opacity="0" offset="1"/></linearGradient><linearGradient id="B" x1="116.53" x2="211.49" y1="400.49" y2="324.75" gradientTransform="matrix(.11943 0 0 .079621 10.946 9.5369)" gradientUnits="userSpaceOnUse"><stop stop-color="#ff9700" offset="0"/><stop stop-color="#f48e00" offset=".574"/><stop stop-color="#ce6e00" offset="1"/></linearGradient><filter id="C" x="-.041" y="-.062" width="1.083" height="1.124" color-interpolation-filters="sRGB"><feGaussianBlur stdDeviation="6.771"/></filter><linearGradient id="D" x1="29.999" x2="29.999" y1="57.03" y2="7.031" gradientUnits="userSpaceOnUse"><stop stop-color="#292929" offset="0"/><stop stop-color="#4d4d4d" offset="1"/></linearGradient><linearGradient id="E" x1="20.308" x2="45.273" y1="31.404" y2="31.404" xlink:href="#A"/><linearGradient id="F" x1="45.298" x2="20.394" y1="36.633" y2="36.633" xlink:href="#A"/><linearGradient id="G" x1="20.308" x2="45.272" y1="23.514" y2="23.514" gradientUnits="userSpaceOnUse"><stop stop-color="#ff9800" offset="0"/><stop stop-color="#ffc522" offset="1"/></linearGradient><path id="H" d="M45.272 31.49c0-.38-.281-.599-.626-.49l-23.713 7.522c-.345.11-.626.507-.626.887v7.688c0 .38.28.6.626.49l23.713-7.521c.345-.11.626-.507.626-.887z"/><path id="I" d="M20.308 31.287c0 .38.28.778.625.887l23.713 7.522c.345.11.625-.11.625-.49v-7.688c0-.379-.28-.777-.625-.887L20.933 23.11c-.345-.11-.625.11-.625.49z"/></defs><path d="M16.514 2C8.523 2 2 8.741 2 16.998v32.004C2 57.259 8.523 64 16.514 64h30.972C55.477 64 62 57.259 62 49.002V16.998C62 8.741 55.477 2 47.486 2zm.972 1.969h29.03c6.971 0 12.583 5.799 12.583 13.002v29.998c0 7.203-5.612 13.002-12.583 13.002h-29.03c-6.971 0-12.583-5.799-12.583-13.002V16.971c0-7.203 5.612-13.002 12.583-13.002z" opacity=".01" class="B"/><path d="M16.474 3C9.04 3 3.004 9.247 3.004 16.938v32.125C3.004 56.753 9.04 63 16.474 63h31.054C54.962 63 61 56.753 61 49.063V16.938C61 9.247 54.962 3 47.528 3zm1.029.969h28.996c6.963 0 12.568 5.799 12.568 13.002v29.998c0 7.203-5.605 13.002-12.568 13.002H17.503c-6.963 0-12.568-5.799-12.568-13.002V16.971c0-7.203 5.605-13.002 12.568-13.002z" opacity=".01" class="B"/><path d="M16.289 4C9.237 4 3.532 9.814 3.532 16.998v32.004C3.532 56.186 9.466 62 16.518 62h30.991c7.052 0 12.954-5.814 12.954-12.998V16.998C60.463 9.814 54.756 4 47.705 4h-.366c6.781.327 12.147 5.979 12.147 12.971v29.998c0 7.203-5.692 13.002-12.762 13.002H17.279c-7.07 0-12.762-5.799-12.762-13.002V16.971C4.516 9.979 9.883 4.328 16.663 4z" opacity=".03" class="B"/><path d="M4 46.969v2.031c0 6.648 5.896 12 12.544 12h30.961c6.648 0 12.495-5.352 12.495-12v-1.992c-.021 7.185-5.81 12.963-13 12.963H17.002C9.799 59.971 4 54.173 4 46.969z" opacity=".03" class="B"/><path d="M4 45v2.239c0 7.327 5.945 13.226 12.593 13.226h30.843C54.083 60.465 60 54.565 60 47.239v-2.196c-.021 7.919-5.81 14.287-13 14.287H17.002C9.799 59.33 4 52.939 4 45z" opacity=".05" class="B"/><rect x="4" y="4" width="56" height="56" rx="13.002" fill="url(#D)"/><path transform="matrix(.06356 0 0 .06356 .25416 -.42237)" d="M708.28 512.08c0-5.982-4.419-9.431-9.842-7.717l-373.08 118.34c-5.434 1.725-9.842 7.979-9.842 13.95v120.95c0 5.982 4.408 9.442 9.842 7.717l373.08-118.33c5.423-1.725 9.842-7.979 9.842-13.961z" opacity=".2" class="C"/><use xlink:href="#H" fill="url(#B)"/><path transform="matrix(.06356 0 0 .06356 .25416 -.42237)" d="M315.52 508.9c0 5.981 4.408 12.235 9.841 13.96l373.09 118.35c5.433 1.725 9.841-1.735 9.841-7.706v-120.96c0-5.97-4.408-12.224-9.841-13.949l-373.09-118.35c-5.433-1.724-9.841 1.724-9.841 7.706z" opacity=".2" class="C"/><use xlink:href="#H" y="-0.069" fill="url(#F)" opacity=".15"/><use xlink:href="#I" fill="#ff9800"/><path transform="matrix(.06356 0 0 .06356 .25416 -.42237)" d="M708.28 263.84c0-5.982-4.419-9.442-9.842-7.717l-373.08 118.33c-5.434 1.725-9.842 7.979-9.842 13.961v120.95c0 5.982 4.408 9.431 9.842 7.717l373.08-118.34c5.423-1.725 9.842-7.979 9.842-13.95z" opacity=".2" class="C"/><use xlink:href="#I" fill="url(#E)" opacity=".15"/><path d="M45.272 15.712c0-.38-.281-.6-.626-.491l-23.713 7.521c-.345.11-.626.507-.626.887v7.688c0 .38.28.599.626.491l23.713-7.522c.345-.11.626-.507.626-.887z" fill="url(#G)"/></svg>