<svg xmlns="http://www.w3.org/2000/svg" width="256" height="209" preserveAspectRatio="xMidYMid"><path d="M256 25.45c-9.419 4.177-19.542 7-30.166 8.27 10.844-6.5 19.172-16.793 23.093-29.057-10.148 6.018-21.388 10.389-33.351 12.745C205.995 7.201 192.345.822 177.239.822c-29.007 0-52.523 23.516-52.523 52.52 0 4.116.465 8.125 1.361 11.969-43.651-2.19-82.351-23.1-108.255-54.875-4.521 7.757-7.111 16.779-7.111 26.404 0 18.221 9.273 34.297 23.366 43.715a52.31 52.31 0 0 1-23.79-6.569l-.004.66c0 25.447 18.104 46.675 42.131 51.5-4.408 1.2-9.047 1.842-13.838 1.842a52.45 52.45 0 0 1-9.881-.942c6.683 20.867 26.079 36.051 49.062 36.475a105.38 105.38 0 0 1-65.228 22.483A106.84 106.84 0 0 1 0 185.271c23.243 14.902 50.851 23.596 80.511 23.596 96.606 0 149.433-80.031 149.433-149.435a151.45 151.45 0 0 0-.152-6.794C240.053 45.233 248.958 35.983 256 25.45" fill="#55acee"/></svg>