<svg xmlns="http://www.w3.org/2000/svg" width="300" height="300"><rect width="300" height="300" ry="49.138" fill="red"/><path d="M149.938 79.223s-63.219 0-79.086 4.123c-8.496 2.374-15.491 9.37-17.865 17.99-4.123 15.867-4.123 48.727-4.123 48.727s0 32.984 4.123 48.602c2.374 8.621 9.245 15.491 17.865 17.865 15.992 4.248 79.086 4.248 79.086 4.248s63.344 0 79.211-4.123c8.621-2.374 15.491-9.12 17.74-17.865 4.248-15.742 4.248-48.602 4.248-48.602s.125-32.984-4.248-48.852c-2.249-8.621-9.119-15.491-17.74-17.74-15.867-4.373-79.211-4.373-79.211-4.373zm-20.115 40.48l52.6 30.359-52.6 30.234v-60.594z" fill="#fff"/></svg>